<?xml version="1.0" encoding="utf-8"?>
<!-- Generator: Adobe Illustrator 22.0.1, SVG Export Plug-In . SVG Version: 6.00 Build 0)  -->
<svg version="1.1" id="Global_Partner" xmlns="http://www.w3.org/2000/svg" xmlns:xlink="http://www.w3.org/1999/xlink" x="0px"
	 y="0px" viewBox="0 0 800 800" style="enable-background:new 0 0 800 800;" xml:space="preserve">
<style type="text/css">
	.st0{fill:#DF1417;}
	.st1{fill:#009FB4;}
	.st2{fill:#333333;}
</style>
<g>
	<path class="st0" d="M605,593.1h108.2v-51.6H605c2.8,8.1,4.4,16.7,4.4,25.8C609.4,576.4,607.8,585,605,593.1z"/>
	<path class="st0" d="M292.5,206.9h-70.1c-6.8,0-13.4,2.7-18.2,7.6c-4.8,4.8-7.6,11.4-7.6,18.2l0,81.7H86.8V366h109.8v21
		c8.1-2.8,16.7-4.4,25.8-4.4c9,0,17.7,1.6,25.8,4.4l0-128.5h44.3c-2.8-8.1-4.4-16.7-4.4-25.8C288.1,223.6,289.7,215,292.5,206.9z"/>
	<path class="st0" d="M456.2,541.5H341.1v51.6h115.1c-2.8-8.1-4.4-16.7-4.4-25.8C451.8,558.3,453.4,549.6,456.2,541.5z"/>
	<path class="st0" d="M530.6,393.9c-9,0-17.7-1.6-25.8-4.4v32.4H393.1v-115c-8.2,2.9-17,4.6-26.2,4.6c-8.9,0-17.4-1.6-25.4-4.3
		v140.5c0,14.2,11.5,25.8,25.8,25.8h137.5V493c8.1-2.8,16.7-4.4,25.8-4.4c9,0,17.7,1.6,25.8,4.4V389.5
		C548.3,392.3,539.6,393.9,530.6,393.9z"/>
	<path class="st0" d="M605,340.7h108.2v-51.6H604.9c2.9,8.1,4.5,16.8,4.5,25.9C609.4,324.1,607.8,332.7,605,340.7z"/>
	<path class="st1" d="M393.1,232.7v74.2c30.6-10.8,52.6-40,52.6-74.2c0-43.4-35.3-78.8-78.8-78.8c-34.4,0-63.6,22.2-74.4,53h74.7
		C381.5,206.9,393.1,218.4,393.1,232.7z"/>
	<path class="st1" d="M292.5,258.5c7.9,22.8,26.1,40.9,48.9,48.7v-48.7H292.5z"/>
	<path class="st2" d="M393.1,306.9v-74.2c0-14.2-11.5-25.8-25.8-25.8h-74.7c-2.8,8.1-4.4,16.7-4.4,25.8c0,9,1.6,17.7,4.4,25.8h48.9
		v48.7c8,2.7,16.5,4.3,25.4,4.3C376.1,311.5,384.9,309.8,393.1,306.9z"/>
	<path class="st1" d="M504.8,493c-22.7,7.9-40.7,25.9-48.6,48.6h48.6V493z"/>
	<path class="st1" d="M605,541.5c-7.9-22.7-25.9-40.7-48.6-48.6v48.6H605z"/>
	<path class="st1" d="M530.6,646.1c34.4,0,63.6-22.2,74.4-53H456.2C466.9,623.9,496.2,646.1,530.6,646.1z"/>
	<path class="st2" d="M504.8,493v48.6h-48.6c-2.8,8.1-4.4,16.7-4.4,25.8c0,9,1.6,17.7,4.4,25.8H605c2.8-8.1,4.4-16.7,4.4-25.8
		c0-9-1.6-17.7-4.4-25.8h-48.6V493c-8.1-2.8-16.7-4.4-25.8-4.4C521.5,488.5,512.9,490.1,504.8,493z"/>
	<path class="st1" d="M530.6,289.1h74.3c-10.8-30.7-40-52.8-74.3-52.8c-43.4,0-78.8,35.3-78.8,78.8c0,34.4,22.2,63.6,53,74.4v-74.5
		C504.8,300.7,516.3,289.1,530.6,289.1z"/>
	<path class="st1" d="M556.4,389.5c22.8-7.9,40.8-26,48.6-48.7h-48.6V389.5z"/>
	<path class="st2" d="M556.4,389.5v-48.7H605c2.8-8,4.4-16.6,4.4-25.6c0-9.1-1.6-17.8-4.5-25.9h-74.3c-14.2,0-25.8,11.5-25.8,25.8
		v74.5c8.1,2.8,16.7,4.4,25.8,4.4C539.6,393.9,548.3,392.3,556.4,389.5z"/>
	<path class="st1" d="M222.4,487.1c-14.2,0-25.8-11.5-25.8-25.8V387c-30.8,10.7-53,40-53,74.4c0,43.4,35.3,78.8,78.8,78.8
		s78.8-35.3,78.8-78.8c0-34.4-22.2-63.7-53-74.4l0,74.4C248.2,475.6,236.7,487.1,222.4,487.1z"/>
	<path class="st2" d="M196.6,387v74.4c0,14.2,11.5,25.8,25.8,25.8s25.8-11.5,25.8-25.8l0-74.4c-8.1-2.8-16.7-4.4-25.8-4.4
		C213.4,382.5,204.7,384.1,196.6,387z"/>
</g>
</svg>
